<svg width="235" height="88" viewBox="0 0 235 88" fill="none" xmlns="http://www.w3.org/2000/svg">
<g filter="url(#filter0_d_53_48)">
<path d="M110.664 22.2889C110.81 21.8101 113.574 21.9291 114.1 21.9114C120.717 21.6911 132.226 21.534 131.358 31.2186C131.07 34.4336 129.17 36.1403 126.469 37.5355C127.954 40.2233 129.235 43.0461 130.877 45.6428C133.134 49.2088 135.752 50.9551 139.689 52.4076C153.187 57.3866 174.285 53.6957 187.888 49.7375C195.133 47.63 202.269 44.3019 210 44.6734L205.534 45.3799C193.81 48.6404 183.356 53.7089 171.354 56.2938C157.575 59.2621 133.652 62.0835 124.778 48.1484C123.451 46.0658 122.65 43.5984 121.165 41.6318C119.022 38.7957 115.135 38.1039 115.452 33.7213C115.685 30.5019 118.838 29.346 121.666 29.4767C120.473 29.913 119.188 30.0672 118.178 30.8911C116.824 31.997 116.515 33.4437 117.146 35.0843C117.181 35.1768 117.472 35.942 117.635 35.7378L117.799 33.996C119.223 32.5067 121.397 33.1896 123.215 32.984C125.646 32.7094 127.538 31.1129 127.438 28.5485H125.423C124.925 28.5485 123.134 27.776 122.429 27.6218C113.58 25.6831 111.816 34.8052 117.635 39.6049V48.7006H110.664V22.286V22.2889Z" fill="white"/>
<path d="M171.333 38.4638L174.271 29.139C174.044 27.0681 171.699 25.4613 172.281 23.2348C172.492 22.427 173.244 22.1259 174.004 22.0172C175.58 21.791 179.653 21.7866 181.164 22.1523C182.896 22.5709 183.17 24.2349 182.31 25.6405C182.165 25.8784 181.997 25.877 181.894 26.0165C181.21 26.9462 181.317 28.9686 181.872 29.9409C181.975 30.12 182.162 30.1524 182.22 30.2728C183.319 32.5317 183.65 35.8656 184.724 38.0892C184.786 38.217 184.818 38.3801 185.001 38.3566L188.602 27.3589C188.422 25.2307 186.119 22.3007 189.791 22.0128C190.851 21.9291 193.828 21.863 194.517 22.7413C195.842 24.4288 193.327 26.5849 192.554 27.9361C189.673 32.9708 188.718 41.0311 186.446 46.6621C185.918 47.9678 185.854 48.6904 184.243 48.8167C183.491 48.8754 181.258 48.8505 180.806 48.216L176.397 35.4147L172.032 48.1499C171.483 49.0355 168.267 48.9753 167.484 48.4656C167.124 48.2321 166.98 47.8811 166.814 47.5022C165.189 43.7996 164.154 38.9572 162.839 35.0299C162.12 32.8856 161.196 29.7676 160.093 27.8641C159.303 26.5012 157.397 25.0134 157.942 23.2729C158.186 22.4931 158.957 22.1171 159.733 22.0143C161.186 21.8204 163.266 21.838 164.749 21.9012C165.392 21.9291 166.653 21.979 167.218 22.1553C168.239 22.471 168.483 23.3581 168.38 24.3451C168.271 25.4026 167.346 26.2676 167.55 27.378L171.001 38.1965L171.333 38.4623V38.4638Z" fill="white"/>
<path d="M100.717 40.6757C99.9768 39.8635 97.3457 39.6579 96.4554 38.4565C95.408 37.0406 95.5754 34.8464 97.5646 34.4616C99.5537 34.0768 103.855 34.1444 106.031 34.3265C110.607 34.7098 107.534 38.1745 107.095 40.6155C106.77 42.422 107.385 43.5867 106.09 45.1655C103.626 48.1632 97.8878 49.5849 94.1607 49.3557C79.3566 48.4437 77.5364 25.2088 92.1245 21.9424C96.6141 20.9363 104.183 21.2227 106.652 25.8638C108.436 29.2154 106.482 32.376 102.658 32.0368C98.5621 31.6725 99.946 26.6246 97.0871 25.2983C94.9467 24.3055 92.7636 25.5554 91.3856 27.1944C88.0125 31.2069 87.9068 40.2938 92.8341 43.1666C94.766 44.2931 98.1287 44.6294 99.9768 43.1931C100.651 42.6687 101.411 41.4409 100.714 40.6757H100.717Z" fill="white"/>
<path d="M143.754 21.5031C161.27 20.1593 162.344 48.9797 145.142 49.4688C128.732 49.9358 127.611 22.7413 143.754 21.5031ZM144.293 24.9825C138.703 25.8608 138.79 36.9716 140.019 40.9679C141.195 44.7865 144.961 48.1925 148.24 44.0698C150.802 40.8489 150.739 33.4158 149.604 29.6398C148.882 27.2428 147.196 24.5257 144.293 24.981V24.9825Z" fill="white"/>
</g>
<g filter="url(#filter1_d_53_48)">
<path d="M18.1675 55.6258C23.1873 54.6785 26.8586 56.1443 30.3726 59.5486C30.7369 59.9011 32.2077 61.2098 31.6509 61.7576V61.7596C30.982 62.4171 27.7815 61.586 26.8824 61.2967C24.3981 60.4977 22.1691 59.0498 19.7701 58.0613C19.33 57.8804 15.7735 56.7225 15.7779 56.5008C16.4316 56.0574 17.3906 55.7726 18.1675 55.6258ZM23.7271 53.2889C31.1268 51.9819 39.3386 53.6657 44.5376 59.3289C44.9059 59.7473 44.0724 60.0214 43.7359 60.1697C36.2466 63.4625 33.4521 58.1625 27.8316 55.3396C27.1969 55.0209 23.8666 53.9615 23.7447 53.6531C23.7021 53.5459 23.7344 53.4049 23.7271 53.2889ZM17.6919 50.575C26.0775 39.4613 47.8495 45.7546 48.3433 59.9334C48.1921 59.9436 48.0482 59.9354 47.9029 59.8855C47.4034 59.7093 45.6612 57.4561 45.025 56.8816C43.1137 55.153 40.6968 53.9343 38.483 52.6404L38.4957 52.4148C39.0333 52.1182 39.7011 52.1318 40.2505 51.8953C40.4445 51.8116 40.7589 51.7025 40.7193 51.4383C36.4443 50.6393 32.097 50.7913 27.7574 50.784C27.1934 50.2069 30.2042 47.8989 30.4849 47.4676C30.5701 47.3369 30.6193 47.2453 30.5884 47.0808C28.6405 47.3804 27.1475 48.1854 25.5904 49.325C22.7625 51.3943 21.6487 52.1703 18.1099 53.0633C17.772 53.1484 16.1984 53.665 16.2291 53.1482C16.254 52.7062 17.3686 51.0056 17.6919 50.575ZM31.6802 29.9793C32.3673 29.9488 32.5264 30.656 32.9273 31.073C37.8707 36.1958 45.9885 39.3275 49.4527 45.7C50.8498 48.2687 51.3993 51.2505 51.2847 54.1599H51.2837L49.5201 50.3152C45.8077 44.1467 38.739 41.2046 34.2964 35.6941C32.9992 34.0859 31.8257 32.0781 31.6802 29.9793ZM5.5103 33.5867C5.71738 33.5357 5.97575 33.7847 6.13726 33.9051C8.58625 35.7204 12.9792 40.2312 14.1207 43.0232C15.1767 45.6095 15.2237 48.8233 14.022 51.3699C13.7856 51.8721 13.4928 52.612 12.8394 52.5301L12.8365 52.5271C12.8203 50.7074 11.7208 48.9034 11.5416 47.1219C11.3829 45.5504 11.8062 43.9155 11.6373 42.3426C11.5916 41.9137 11.37 41.2661 10.8765 41.2C10.6459 41.7405 10.7427 43.3811 9.86284 43.1639C9.62191 43.1036 7.92791 39.837 7.54741 39.3553C7.46526 39.2511 7.38444 39.1089 7.22905 39.1306C6.88969 39.2041 7.17421 40.1945 7.2271 40.4383C7.89853 43.5342 9.70286 46.6305 10.4947 49.6971C10.5845 50.0472 10.97 51.2871 10.481 51.4324C10.3386 51.4822 10.2679 51.3989 10.1636 51.3357C9.89596 51.1738 8.96315 50.2519 8.69585 49.9715C5.88407 47.0311 3.78796 42.557 4.01714 38.4226C4.06131 37.6305 4.6774 33.7938 5.5103 33.5867ZM34.9097 14.9705C38.7983 12.2462 44.4497 12.2565 48.0152 15.5476C48.7218 16.1997 49.1735 17.031 49.983 17.6111C51.2566 18.5245 52.9502 18.8755 54.3355 19.576C54.6336 19.7272 55.5702 20.2398 55.7457 20.4529C56.0468 20.8186 55.7454 21.4004 55.4781 21.7058C54.7142 22.5781 54.5015 21.1788 53.8404 21.0525C53.5244 20.9923 51.1531 21.0322 51.065 21.1599L51.0494 21.1912C50.9192 21.5576 52.288 22.3583 52.5328 22.576C53.37 23.3132 53.8112 23.7976 53.4058 24.9666C52.1439 28.6046 47.895 26.829 45.3873 28.2771C44.7336 28.6546 44.2899 29.4987 43.4585 29.3064C42.3598 27.1373 44.1118 25.2106 44.9654 23.3367C43.9342 23.3104 42.8909 23.9293 42.1314 24.5857C41.8362 24.8412 40.6459 26.3214 40.4468 26.2771C39.6418 25.2931 40.1572 23.9179 40.6949 22.9324C40.9152 22.53 41.5378 22.16 41.313 21.5916C38.2856 22.4333 37.4399 25.6026 38.4888 28.3416C40.4956 33.5861 48.0945 34.9756 51.8834 38.6912C55.3592 42.1001 56.2804 47.4324 55.4195 52.0926L54.9117 49.2791C52.3654 39.2819 34.5099 35.1726 33.8501 24.9197C33.693 22.4743 34.7273 20.8188 35.1607 18.5437C33.9325 18.6349 32.0801 19.531 30.8814 19.1756C30.2762 18.9964 30.7919 18.1888 30.7876 17.8348C30.7744 16.3706 28.4536 15.983 27.3414 16.3338C25.0158 17.0681 25.9396 19.3033 26.2291 21.0496C25.2286 20.8866 24.2012 19.8159 24.0601 18.8084C23.5959 15.4862 28.4619 12.3215 30.8609 14.949C31.1797 15.2991 31.9901 17.0402 32.3648 17.0047C32.7144 16.9709 34.419 15.3142 34.9097 14.9705ZM62.5796 39.6922C62.9705 39.4351 63.778 38.774 64.2525 39.0691L64.2447 40.4881C64.0022 42.5589 62.5952 44.8589 61.0894 46.2644C60.7996 46.5335 59.2491 47.8501 58.9097 47.5154C58.9745 45.5416 60.7 43.9055 61.6314 42.2312L61.5787 42.0701C60.4902 42.6385 59.6319 43.524 58.7447 44.3553C58.5158 44.4006 58.5689 44.2463 58.5835 44.0848C58.7246 42.5147 61.3265 40.5205 62.5796 39.6922ZM26.4498 24.4764C26.7362 24.422 28.1182 24.0795 27.9761 24.6932C27.9321 24.8782 25.1449 26.3899 24.7183 26.6648C23.2713 27.5989 21.3958 28.8738 20.2955 30.1941C20.186 30.3258 19.6702 30.9342 19.8082 31.0662L19.8062 31.0672C20.1396 31.3873 22.6467 30.047 23.1763 29.9187C23.3511 29.8761 23.7692 29.7402 23.7281 30.034C23.6469 30.6041 22.2203 32.2899 21.856 33.0652C20.9967 34.8981 20.3387 37.9379 20.4546 39.95C20.5207 41.0926 21.2331 43.1577 20.9761 44.1668C20.8498 44.6632 19.8813 45.232 19.398 45.3113C16.7804 45.7384 17.6115 41.4646 17.8951 39.9959C18.2168 38.3289 18.7788 36.6985 19.149 35.0418L18.9292 34.9275C18.0201 35.3902 17.4236 36.2286 16.9888 37.1287C16.7861 37.5487 16.3003 39.1427 15.9947 39.2928C15.3528 39.61 14.5502 38.2531 14.0904 37.8182C12.376 36.1938 10.803 35.8837 12.3541 33.1463C14.8441 28.7505 21.6282 25.4017 26.4498 24.4764ZM28.7349 27.8025C28.5837 31.5897 28.6633 34.8912 31.2457 37.8738C33.0305 39.9342 35.5938 41.0019 37.6578 42.6805C37.8516 42.8375 38.6169 43.3413 38.4312 43.5955C35.3329 42.3368 29.9639 43.3969 27.9527 40.1863C27.5989 39.621 27.4451 38.9645 27.1587 38.3699C25.6147 39.445 27.6989 41.892 25.7964 42.7791C23.8941 43.6661 23.4346 42.5398 23.2935 40.8172C23.0041 37.2821 24.263 32.5029 26.4048 29.6639C26.9731 28.9107 27.7937 28.0042 28.7349 27.8025ZM63.0972 27.7879C63.275 27.6469 63.503 27.6894 63.6705 27.8318V27.8338C63.8159 27.9576 64.1349 28.6421 64.2203 28.8611C65.5233 32.2053 64.58 36.9795 61.5582 39.1092C61.1306 39.4103 59.3275 40.6201 59.2261 39.6199C59.1424 38.7872 60.9832 35.1185 61.3873 34.0359C61.6076 33.4457 61.8601 32.8567 61.9498 32.2254L61.69 32.0457C60.9848 32.0546 59.7903 34.6377 59.2056 34.9109C59.1411 34.9417 59.0811 34.964 59.0093 34.9392C58.5789 34.8423 58.5355 34.1316 58.4195 33.7908C56.7643 34.6824 57.9159 36.4581 57.8072 37.8621C57.7644 38.4191 57.2502 40.5015 57.0035 40.9803C56.8758 41.2268 56.8373 41.4029 56.5142 41.2547C55.9016 40.9739 55.21 37.9132 55.2027 37.2156C55.1616 33.1224 60.4308 30.1936 63.0972 27.7879ZM50.1128 28.9685C50.9723 28.7744 52.3385 27.7356 53.0347 27.9588C53.5236 28.1146 53.6152 28.6771 53.8296 29.0721C53.9458 29.2859 54.1909 29.2336 54.2291 29.8191C54.301 30.9339 53.8174 31.7949 52.9712 32.4822C51.2524 33.8773 48.1208 33.4085 47.2466 31.2937C46.9778 31.0955 46.0828 32.1147 46.0093 30.906C45.8492 28.3152 48.4175 29.3489 50.1128 28.9685ZM16.4625 19.1785C17.9536 18.3164 20.2297 17.5462 21.8707 18.2703C20.6557 19.363 18.709 20.1715 18.3873 21.9207L18.3902 21.9187H21.8199C21.9153 21.9187 22.4576 22.3904 22.7457 22.2469C22.6852 22.8942 21.775 23.0911 21.2476 23.3084C18.2962 24.5259 15.8261 25.1366 13.3199 27.3631C12.1417 28.4102 11.5294 29.8191 10.272 30.74C10.0076 30.5271 10.106 30.1305 10.1236 29.8308C10.366 25.7318 12.8926 21.2435 16.4625 19.1785ZM45.8394 18.159C44.294 16.7741 42.3326 16.1441 40.2584 16.6111C39.9771 16.6745 38.4749 17.1434 38.7584 17.5603C40.2304 17.8717 41.5325 18.6707 42.9839 19.0555C43.6657 19.2361 45.4796 19.6423 46.1128 19.6336C47.4115 19.616 46.2581 18.535 45.8394 18.159ZM22.5582 10.6746C27.5061 7.1732 34.8875 5.30087 40.2085 9.08573C40.4494 9.25719 42.0296 10.4928 41.6978 10.8084L41.6988 10.8064C38.6638 10.9237 35.511 9.07658 32.5083 9.40409C32.3765 9.41897 31.2133 9.61143 31.4615 9.93436C32.2816 10.2927 35.1381 10.8426 35.5201 11.5974C35.5744 11.7046 35.6183 11.8101 35.5904 11.9334C35.5034 12.23 34.5208 12.4118 34.2359 12.4383C32.476 12.6056 30.6765 11.9726 28.9019 12.115C24.3699 12.4793 19.8835 17.9458 15.231 14.8914C15.848 14.5303 16.5954 14.5164 17.2505 14.2976C19.3424 13.5971 20.8056 11.9142 22.5582 10.6746Z" fill="url(#paint0_radial_53_48)"/>
</g>
<defs>
<filter id="filter0_d_53_48" x="57.4732" y="0.857576" width="177.127" height="86.4687" filterUnits="userSpaceOnUse" color-interpolation-filters="sRGB">
<feFlood flood-opacity="0" result="BackgroundImageFix"/>
<feColorMatrix in="SourceAlpha" type="matrix" values="0 0 0 0 0 0 0 0 0 0 0 0 0 0 0 0 0 0 127 0" result="hardAlpha"/>
<feOffset dy="4"/>
<feGaussianBlur stdDeviation="12.3"/>
<feComposite in2="hardAlpha" operator="out"/>
<feColorMatrix type="matrix" values="0 0 0 0 0 0 0 0 0 0 0 0 0 0 0 0 0 0 0.25 0"/>
<feBlend mode="normal" in2="BackgroundImageFix" result="effect1_dropShadow_53_48"/>
<feBlend mode="normal" in="SourceGraphic" in2="effect1_dropShadow_53_48" result="shape"/>
</filter>
<filter id="filter1_d_53_48" x="0" y="6.99984" width="68.791" height="63.0067" filterUnits="userSpaceOnUse" color-interpolation-filters="sRGB">
<feFlood flood-opacity="0" result="BackgroundImageFix"/>
<feColorMatrix in="SourceAlpha" type="matrix" values="0 0 0 0 0 0 0 0 0 0 0 0 0 0 0 0 0 0 127 0" result="hardAlpha"/>
<feOffset dy="4"/>
<feGaussianBlur stdDeviation="2"/>
<feComposite in2="hardAlpha" operator="out"/>
<feColorMatrix type="matrix" values="0 0 0 0 0 0 0 0 0 0 0 0 0 0 0 0 0 0 0.25 0"/>
<feBlend mode="normal" in2="BackgroundImageFix" result="effect1_dropShadow_53_48"/>
<feBlend mode="normal" in="SourceGraphic" in2="effect1_dropShadow_53_48" result="shape"/>
</filter>
<radialGradient id="paint0_radial_53_48" cx="0" cy="0" r="1" gradientUnits="userSpaceOnUse" gradientTransform="translate(10.8018 22.6334) rotate(19.845) scale(89.2609 82.7485)">
<stop stop-color="#8D9CF9"/>
<stop offset="1" stop-color="#FE645F"/>
</radialGradient>
</defs>
</svg>
