<svg width="35" height="42" viewBox="0 0 35 42" fill="none" xmlns="http://www.w3.org/2000/svg">
<path d="M17.5 0C20.7218 0 23.3333 2.56419 23.3333 5.72727C23.3333 6.39666 23.2163 7.03922 23.0014 7.63634H33.0556C34.1295 7.63634 35 8.49111 35 9.54546V15.2727C31.7783 15.2727 29.1667 17.8368 29.1667 21C29.1667 24.1632 31.7783 26.7273 35 26.7273V32.4545C35 33.5089 34.1295 34.3637 33.0556 34.3637H23.0014C23.2163 34.9608 23.3333 35.6034 23.3333 36.2727C23.3333 39.4359 20.7218 42 17.5 42C14.2782 42 11.6667 39.4359 11.6667 36.2727C11.6667 35.6034 11.7836 34.9608 11.9986 34.3637H1.94443C0.870551 34.3637 0 33.5089 0 32.4545V26.7273C3.22165 26.7273 5.83333 24.1632 5.83333 21C5.83333 17.8368 3.22165 15.2727 0 15.2727V9.54546C0 8.49111 0.870551 7.63634 1.94443 7.63634H11.9986C11.7836 7.03922 11.6667 6.39667 11.6667 5.72727C11.6667 2.56419 14.2782 1.08247e-07 17.5 0Z" fill="url(#paint0_radial_86_293)"/>
<defs>
<radialGradient id="paint0_radial_86_293" cx="0" cy="0" r="1" gradientUnits="userSpaceOnUse" gradientTransform="translate(3.91609 11.9369) rotate(25.5774) scale(53.5909 60.5884)">
<stop stop-color="#8D9CF9"/>
<stop offset="1" stop-color="#FE645F"/>
</radialGradient>
</defs>
</svg>
