<svg width="70" height="70" viewBox="0 0 70 70" fill="none" xmlns="http://www.w3.org/2000/svg">
<path fill-rule="evenodd" clip-rule="evenodd" d="M35.0001 13.125C24.2263 13.125 17.2769 18.5392 13.0721 23.8907C10.9768 26.5575 9.55276 29.2174 8.65186 31.2088C8.2006 32.2063 7.87833 33.0412 7.66724 33.6322C7.56165 33.9279 7.48371 34.163 7.43125 34.3274C7.40501 34.4097 7.38513 34.4743 7.37133 34.52C7.36442 34.5429 7.35904 34.561 7.35514 34.5743C7.35319 34.5809 7.35162 34.5864 7.3504 34.5905L7.34886 34.5959L7.3483 34.5979C7.3483 34.5979 7.34787 34.5994 8.75009 35L7.34787 34.5994L7.2334 35L7.34787 35.4006L8.75009 35C7.34787 35.4006 7.3483 35.4021 7.3483 35.4021L7.34886 35.4041L7.3504 35.4095C7.35162 35.4136 7.35319 35.419 7.35514 35.4257C7.35904 35.439 7.36442 35.4571 7.37133 35.48C7.38513 35.5257 7.40501 35.5903 7.43125 35.6726C7.48371 35.837 7.56165 36.0721 7.66724 36.3678C7.87833 36.9588 8.2006 37.7937 8.65186 38.7912C9.55276 40.7826 10.9768 43.4425 13.0721 46.1093C17.2769 51.4608 24.2263 56.875 35.0001 56.875C45.7739 56.875 52.7233 51.4608 56.9281 46.1093C59.0234 43.4425 60.4474 40.7826 61.3483 38.7912C61.7996 37.7937 62.1218 36.9588 62.3329 36.3678C62.4385 36.0721 62.5165 35.837 62.5689 35.6726C62.5952 35.5903 62.6151 35.5257 62.6288 35.48C62.6358 35.4571 62.6411 35.439 62.645 35.4257C62.647 35.419 62.6486 35.4136 62.6498 35.4095L62.6519 35.4021C62.6519 35.4021 62.6523 35.4006 61.2501 35L62.6523 35.4006L62.7668 35L62.6523 34.5994L61.2501 35C62.6523 34.5994 62.6519 34.5979 62.6519 34.5979L62.6498 34.5905L62.6466 34.5795L62.645 34.5743C62.643 34.5675 62.6406 34.5594 62.6378 34.55C62.6352 34.5411 62.6322 34.5311 62.6288 34.52C62.6151 34.4743 62.5952 34.4097 62.5689 34.3274C62.5165 34.163 62.4385 33.9279 62.3329 33.6322C62.1218 33.0412 61.7996 32.2063 61.3483 31.2088C60.4474 29.2174 59.0234 26.5575 56.9281 23.8907C52.7233 18.5392 45.7739 13.125 35.0001 13.125ZM10.414 35.3868C10.361 35.2384 10.3165 35.1089 10.28 35C10.3165 34.8911 10.361 34.7616 10.414 34.6132C10.6017 34.0877 10.8946 33.3275 11.3093 32.411C12.1401 30.5743 13.4505 28.13 15.3656 25.6927C19.1816 20.8358 25.3572 16.0417 35.0001 16.0417C44.6429 16.0417 50.8185 20.8358 54.6346 25.6927C56.5497 28.13 57.86 30.5743 58.6909 32.411C59.1055 33.3275 59.3985 34.0877 59.5862 34.6132C59.6392 34.7616 59.6837 34.8911 59.7202 35C59.6837 35.1089 59.6392 35.2384 59.5862 35.3868C59.3985 35.9123 59.1055 36.6725 58.6909 37.589C57.86 39.4257 56.5497 41.87 54.6346 44.3073C50.8185 49.1642 44.6429 53.9583 35.0001 53.9583C25.3572 53.9583 19.1817 49.1642 15.3656 44.3073C13.4505 41.87 12.1401 39.4257 11.3093 37.589C10.8946 36.6725 10.6017 35.9123 10.414 35.3868Z" fill="white"/>
<path fill-rule="evenodd" clip-rule="evenodd" d="M35 26.25C30.1675 26.25 26.25 30.1675 26.25 35C26.25 39.8325 30.1675 43.75 35 43.75C39.8325 43.75 43.75 39.8325 43.75 35C43.75 30.1675 39.8325 26.25 35 26.25ZM29.1667 35C29.1667 31.7783 31.7783 29.1667 35 29.1667C38.2217 29.1667 40.8333 31.7783 40.8333 35C40.8333 38.2217 38.2217 40.8333 35 40.8333C31.7783 40.8333 29.1667 38.2217 29.1667 35Z" fill="url(#paint0_radial_86_454)"/>
<defs>
<radialGradient id="paint0_radial_86_454" cx="0" cy="0" r="1" gradientUnits="userSpaceOnUse" gradientTransform="translate(28.208 31.2237) rotate(21.7452) scale(26.0212 25.9963)">
<stop stop-color="#8D9CF9"/>
<stop offset="1" stop-color="#FE645F"/>
</radialGradient>
</defs>
</svg>
